<?xml version="1.0" encoding="UTF-8" standalone="no"?>
<!-- Created with Inkscape (http://www.inkscape.org/) -->

<svg
   xmlns:dc="http://purl.org/dc/elements/1.1/"
   xmlns:cc="http://creativecommons.org/ns#"
   xmlns:rdf="http://www.w3.org/1999/02/22-rdf-syntax-ns#"
   xmlns:svg="http://www.w3.org/2000/svg"
   xmlns="http://www.w3.org/2000/svg"
   xmlns:xlink="http://www.w3.org/1999/xlink"
   xmlns:sodipodi="http://sodipodi.sourceforge.net/DTD/sodipodi-0.dtd"
   xmlns:inkscape="http://www.inkscape.org/namespaces/inkscape"
   width="95.82"
   height="95.815857"
   id="svg2489"
   sodipodi:version="0.32"
   inkscape:version="0.48.4 r9939"
   sodipodi:modified="true"
   version="1.0"
   sodipodi:docname="ticking.svg">
  <defs
     id="defs2491">
    <linearGradient
       id="linearGradient3869">
      <stop
         style="stop-color:#203b1f;stop-opacity:1;"
         offset="0"
         id="stop3871" />
      <stop
         style="stop-color:#5ab951;stop-opacity:1;"
         offset="1"
         id="stop3873" />
    </linearGradient>
    <linearGradient
       inkscape:collect="always"
       xlink:href="#linearGradient4177"
       id="linearGradient4470"
       gradientUnits="userSpaceOnUse"
       x1="286.29648"
       y1="238.83791"
       x2="220.46715"
       y2="238.83791"
       gradientTransform="matrix(0.6480464,0,0,0.6480464,84.242083,99.24012)" />
    <linearGradient
       inkscape:collect="always"
       xlink:href="#linearGradient4177"
       id="linearGradient4476"
       gradientUnits="userSpaceOnUse"
       x1="286.29648"
       y1="238.83791"
       x2="220.46715"
       y2="238.83791"
       gradientTransform="matrix(0.6480464,0,0,0.6480464,84.242083,99.24012)" />
    <linearGradient
       id="linearGradient4177"
       inkscape:collect="always">
      <stop
         offset="0"
         style="stop-color:#aa0000;stop-opacity:1;"
         id="stop4179" />
      <stop
         offset="1"
         style="stop-color:#aa0000;stop-opacity:0;"
         id="stop4181" />
    </linearGradient>
    <linearGradient
       inkscape:collect="always"
       xlink:href="#linearGradient4177"
       id="linearGradient4482"
       gradientUnits="userSpaceOnUse"
       x1="286.29648"
       y1="238.83791"
       x2="220.46715"
       y2="238.83791"
       gradientTransform="matrix(0.6480464,0,0,0.6480464,84.242083,99.24012)" />
    <linearGradient
       inkscape:collect="always"
       xlink:href="#linearGradient4177"
       id="linearGradient3831"
       gradientUnits="userSpaceOnUse"
       gradientTransform="matrix(0.2713544,0,0,0.2713544,56.478365,321.95386)"
       x1="286.29648"
       y1="238.83791"
       x2="220.46715"
       y2="238.83791" />
    <linearGradient
       inkscape:collect="always"
       xlink:href="#linearGradient4177"
       id="linearGradient3833"
       gradientUnits="userSpaceOnUse"
       gradientTransform="matrix(0.2713544,0,0,0.2713544,56.478365,321.95386)"
       x1="286.29648"
       y1="238.83791"
       x2="220.46715"
       y2="238.83791" />
    <linearGradient
       inkscape:collect="always"
       xlink:href="#linearGradient4177"
       id="linearGradient3835"
       gradientUnits="userSpaceOnUse"
       gradientTransform="matrix(0.2713544,0,0,0.2713544,56.478365,321.95386)"
       x1="286.29648"
       y1="238.83791"
       x2="220.46715"
       y2="238.83791" />
    <linearGradient
       inkscape:collect="always"
       xlink:href="#linearGradient3869"
       id="linearGradient3875"
       x1="-46.300884"
       y1="34.883682"
       x2="-19.388762"
       y2="34.883682"
       gradientUnits="userSpaceOnUse" />
  </defs>
  <sodipodi:namedview
     id="base"
     pagecolor="#ffffff"
     bordercolor="#666666"
     borderopacity="1.0"
     gridtolerance="10000"
     guidetolerance="10"
     objecttolerance="10"
     inkscape:pageopacity="0.0"
     inkscape:pageshadow="2"
     inkscape:zoom="5.4650928"
     inkscape:cx="43.49039"
     inkscape:cy="31.598737"
     inkscape:document-units="px"
     inkscape:current-layer="layer1"
     inkscape:window-width="1217"
     inkscape:window-height="1025"
     inkscape:window-x="0"
     inkscape:window-y="30"
     showgrid="false"
     inkscape:window-maximized="0"
     fit-margin-top="0"
     fit-margin-left="0"
     fit-margin-right="0"
     fit-margin-bottom="0"
     showguides="true"
     inkscape:guide-bbox="true">
    <sodipodi:guide
       orientation="0.70710678,0.70710678"
       position="49.231393,39.228234"
       id="guide3816" />
    <sodipodi:guide
       orientation="0,1"
       position="49.231393,39.228234"
       id="guide3839" />
    <sodipodi:guide
       orientation="1,0"
       position="49.231393,39.228234"
       id="guide3851" />
    <sodipodi:guide
       orientation="0.70710678,0.70710678"
       position="80.219352,39.228234"
       id="guide3857" />
    <sodipodi:guide
       orientation="0.70710678,0.70710678"
       position="49.231393,8.240275"
       id="guide3859" />
    <sodipodi:guide
       orientation="-0.70710678,0.70710678"
       position="80.219352,39.228234"
       id="guide3861" />
    <sodipodi:guide
       orientation="-0.70710678,0.70710678"
       position="49.231393,70.216193"
       id="guide3863" />
    <sodipodi:guide
       orientation="-0.70710678,0.70710678"
       position="49.231393,39.228234"
       id="guide3865" />
  </sodipodi:namedview>
  <g
     inkscape:label="Layer 1"
     inkscape:groupmode="layer"
     id="layer1"
     transform="translate(-72.197368,-341.88282)">
    <path
       sodipodi:ry="93.69165"
       sodipodi:rx="93.69165"
       d="m 333.0473,281.96933 a 93.69165,93.69165 0 1 1 -187.3833,0 93.69165,93.69165 0 1 1 187.3833,0 z"
       sodipodi:type="arc"
       sodipodi:cy="281.96933"
       sodipodi:cx="239.35565"
       id="path3976"
       style="fill:#4d4d4d;fill-opacity:1;fill-rule:nonzero;stroke:none"
       transform="matrix(0.4187268,0,0,0.4187268,21.203947,280.39936)" />
    <rect
       height="7.7326975"
       x="116.91784"
       y="353.74847"
       ry="1.4804229"
       rx="1.4804229"
       width="9.0214806"
       id="rect4015"
       style="fill:#4d4d4d;fill-opacity:1;fill-rule:nonzero;stroke:none" />
    <rect
       height="7.4832649"
       x="114.59801"
       y="350.58505"
       ry="3.7416325"
       rx="3.7416325"
       width="13.661123"
       id="rect4017"
       style="fill:#4d4d4d;fill-opacity:1;fill-rule:nonzero;stroke:none" />
    <rect
       style="fill:none;stroke:#4d4d4d;stroke-width:2.98667693;stroke-linecap:butt;stroke-linejoin:round;stroke-miterlimit:4;stroke-opacity:1;stroke-dasharray:none;stroke-dashoffset:0"
       id="rect4021"
       width="20.105011"
       rx="7.8615756"
       ry="4.8973627"
       y="343.37616"
       x="111.67651"
       height="10.31024" />
    <rect
       style="fill:#cc0000;fill-opacity:1;stroke:none"
       id="rect3877"
       width="5.3064055"
       height="7.3191805"
       x="356.58298"
       y="159.39265"
       transform="matrix(0.72689866,0.68674474,-0.68674474,0.72689866,0,0)"
       rx="1.9396657"
       ry="1.9396657"
       inkscape:transform-center-x="34.400148" />
    <path
       sodipodi:ry="78.1353"
       sodipodi:rx="78.1353"
       d="m 317.49095,281.96933 a 78.1353,78.1353 0 1 1 -156.2706,0 78.1353,78.1353 0 1 1 156.2706,0 z"
       sodipodi:type="arc"
       sodipodi:cy="281.96933"
       sodipodi:cx="239.35565"
       id="path3978"
       style="fill:#ffffff;fill-opacity:1;fill-rule:nonzero;stroke:none"
       transform="matrix(0.40547941,0,0,0.40961922,24.374785,282.96742)" />
    <rect
       height="10.086262"
       x="118.90279"
       y="367.53561"
       ry="1.9396657"
       rx="1.9396657"
       width="5.0431309"
       id="rect3984"
       style="fill:#4d4d4d;fill-opacity:1;fill-rule:nonzero;stroke:none" />
    <use
       height="1052.3622"
       x="0"
       xlink:href="#rect3984"
       y="0"
       transform="translate(0.08593997,51.723817)"
       width="744.09448"
       id="use3986" />
    <use
       height="1052.3622"
       x="0"
       xlink:href="#rect3984"
       y="0"
       transform="matrix(0,-1,1,0,-277.07298,519.9195)"
       width="744.09448"
       id="use3990" />
    <use
       height="1052.3622"
       x="0"
       xlink:href="#rect3984"
       y="0"
       transform="matrix(0,-1,1,0,-225.36562,519.9084)"
       width="744.09448"
       id="use3992" />
    <g
       id="g3826"
       transform="matrix(0.96022561,0,0,1.1467917,5.5527466,-56.732371)">
      <path
         style="fill:url(#linearGradient3831);fill-opacity:1;fill-rule:nonzero;stroke:none"
         d="m 121.54406,376.57241 c -0.80898,0.003 -1.63012,0.0464 -2.45915,0.13568 -0.25601,0.009 -0.48574,0.15958 -0.59526,0.39115 -0.10953,0.23156 -0.0805,0.50491 0.0752,0.70828 0.15574,0.20338 0.41206,0.3027 0.66417,0.25734 6.27151,-0.67506 11.83556,1.21728 16.3915,5.57972 0.16966,0.19747 0.4367,0.2815 0.68887,0.21677 0.25216,-0.0647 0.44571,-0.267 0.49928,-0.52177 0.0536,-0.25477 -0.0421,-0.51786 -0.24689,-0.67866 -4.21574,-4.0367 -9.35489,-6.11071 -15.01777,-6.08851 z"
         id="path4047"
         inkscape:connector-curvature="0" />
      <path
         style="fill:url(#linearGradient3833);fill-opacity:1;fill-rule:nonzero;stroke:none"
         d="m 123.53682,380.60033 c -0.34071,0.0499 -0.59121,0.3453 -0.58476,0.68959 0.006,0.34429 0.26785,0.63009 0.6102,0.66718 3.48708,0.45075 6.28184,1.72867 8.9123,4.06183 0.28333,0.25056 0.71614,0.22398 0.96669,-0.0594 0.25056,-0.28333 0.22399,-0.71614 -0.0593,-0.96669 -2.80943,-2.49191 -5.91723,-3.91113 -9.64157,-4.39255 -0.0674,-0.0101 -0.13605,-0.0101 -0.20351,0 l 0,0 z"
         id="path4049"
         inkscape:connector-curvature="0" />
      <path
         style="fill:url(#linearGradient3835);fill-opacity:1;fill-rule:nonzero;stroke:none"
         d="m 120.99287,372.86673 c -2.26778,0.0619 -4.57339,0.43494 -6.86866,1.11933 -0.2475,0.0591 -0.44172,0.25072 -0.50418,0.4974 -0.0625,0.24667 0.0172,0.50763 0.20674,0.67739 0.18955,0.16977 0.45767,0.22027 0.696,0.13111 8.73939,-2.60587 17.43126,-0.42833 23.9131,5.98675 0.26929,0.26695 0.704,0.26505 0.97094,-0.004 0.26695,-0.26929 0.26505,-0.70399 -0.004,-0.97094 -5.10705,-5.05445 -11.60634,-7.62241 -18.4097,-7.4368 z"
         id="path4051"
         inkscape:connector-curvature="0" />
    </g>
    <path
       inkscape:connector-curvature="0"
       id="path4158"
       sodipodi:nodetypes="ccccc"
       d="m 144.37512,362.84009 -1.33238,5.27872 5.18148,3.99715 5.0006,-2.92275 c 0,-2.59074 -6.62906,-7.09333 -8.8497,-6.35312 z"
       style="fill:#4d4d4d;fill-rule:evenodd;stroke:none" />
    <path
       inkscape:connector-curvature="0"
       sodipodi:nodetypes="zccz"
       id="path4782"
       d="m 141.54006,378.35915 c -1.14256,-0.96788 -20.34581,18.40198 -20.34581,18.40198 l 1.93574,1.93574 c 0,0 19.55262,-19.36985 18.41007,-20.33772 z"
       style="fill:#1a1a1a;fill-rule:evenodd;stroke:none" />
    <path
       sodipodi:type="arc"
       style="fill:none;stroke:url(#linearGradient3875);stroke-width:0.74605107000000004;stroke-miterlimit:4;stroke-opacity:1;stroke-dasharray:none;stroke-dashoffset:0"
       id="path3030"
       sodipodi:cx="-32.844822"
       sodipodi:cy="34.883682"
       sodipodi:rx="13.083035"
       sodipodi:ry="13.906443"
       d="m -19.761786,34.883682 a 13.083035,13.906443 0 1 1 -26.166071,0 13.083035,13.906443 0 1 1 26.166071,0 z"
       transform="matrix(2.6776053,0,0,2.5190631,209.37404,310.59328)" />
    <path
       sodipodi:type="arc"
       style="fill:#1a1a1a;fill-opacity:1;stroke:none"
       id="path3867"
       sodipodi:cx="41.856388"
       sodipodi:cy="45.22591"
       sodipodi:rx="2.1348698"
       sodipodi:ry="2.0054839"
       d="m 43.991258,45.22591 a 2.1348698,2.0054839 0 1 1 -4.26974,0 2.1348698,2.0054839 0 1 1 4.26974,0 z"
       transform="matrix(1.1710316,0,0,1.246582,72.41342,342.08967)" />
  </g>
  <metadata
     id="metadata38">
    <rdf:RDF>
      <cc:Work>
        <dc:format>image/svg+xml</dc:format>
        <dc:type
           rdf:resource="http://purl.org/dc/dcmitype/StillImage" />
        <cc:license
           rdf:resource="http://creativecommons.org/licenses/publicdomain/" />
        <dc:publisher>
          <cc:Agent
             rdf:about="http://openclipart.org/">
            <dc:title>Open Clip Art Library</dc:title>
          </cc:Agent>
        </dc:publisher>
        <dc:title>Stopwatch (no shading)</dc:title>
        <dc:date>2007-04-17T11:40:24</dc:date>
        <dc:description>A stopwatch with a moving hand</dc:description>
        <dc:source>http://openclipart.org/detail/3977/stopwatch-(no-shading)-by-dtjohnnymonkey</dc:source>
        <dc:creator>
          <cc:Agent>
            <dc:title>dtjohnnymonkey</dc:title>
          </cc:Agent>
        </dc:creator>
        <dc:subject>
          <rdf:Bag>
            <rdf:li>clip art</rdf:li>
            <rdf:li>clipart</rdf:li>
            <rdf:li>fast</rdf:li>
            <rdf:li>fast</rdf:li>
            <rdf:li>image</rdf:li>
            <rdf:li>media</rdf:li>
            <rdf:li>public domain</rdf:li>
            <rdf:li>quick</rdf:li>
            <rdf:li>quick</rdf:li>
            <rdf:li>stopwatch</rdf:li>
            <rdf:li>stopwatch</rdf:li>
            <rdf:li>svg</rdf:li>
            <rdf:li>time</rdf:li>
            <rdf:li>time</rdf:li>
            <rdf:li>watch</rdf:li>
            <rdf:li>watch</rdf:li>
          </rdf:Bag>
        </dc:subject>
      </cc:Work>
      <cc:License
         rdf:about="http://creativecommons.org/licenses/publicdomain/">
        <cc:permits
           rdf:resource="http://creativecommons.org/ns#Reproduction" />
        <cc:permits
           rdf:resource="http://creativecommons.org/ns#Distribution" />
        <cc:permits
           rdf:resource="http://creativecommons.org/ns#DerivativeWorks" />
      </cc:License>
    </rdf:RDF>
  </metadata>
</svg>
